<?xml version="1.0" encoding="UTF-8" standalone="no"?>
<!DOCTYPE svg PUBLIC "-//W3C//DTD SVG 1.0//EN" "http://www.w3.org/TR/2001/PR-SVG-20010719/DTD/svg10.dtd">
<svg width="40cm" height="23cm" viewBox="63 21 800 445" xmlns="http://www.w3.org/2000/svg" xmlns:xlink="http://www.w3.org/1999/xlink">
  <text font-size="12.8" style="fill: #000000;text-anchor:start;font-family:sans-serif;font-style:normal;font-weight:normal" x="167" y="118">
    <tspan x="167" y="118"></tspan>
  </text>
  <text font-size="12.8" style="fill: #000000;text-anchor:start;font-family:sans-serif;font-style:normal;font-weight:normal" x="121.024" y="117">
    <tspan x="121.024" y="117">    Warehouse</tspan>
  </text>
  <g>
    <line style="fill: none; fill-opacity:0; stroke-width: 2; stroke: #000000" x1="113.024" y1="101" x2="113.024" y2="124.158"/>
    <line style="fill: none; fill-opacity:0; stroke-width: 2; stroke: #000000" x1="113.024" y1="101" x2="232.024" y2="101"/>
    <line style="fill: none; fill-opacity:0; stroke-width: 2; stroke: #000000" x1="113.024" y1="124.158" x2="232.024" y2="124.158"/>
    <text font-size="12.8" style="fill: #000000;text-anchor:middle;font-family:sans-serif;font-style:normal;font-weight:normal" x="175.499" y="117.158">
      <tspan x="175.499" y="117.158"></tspan>
    </text>
  </g>
  <g>
    <path style="fill: #ffffff" d="M 132.524 156 L 210.524,156 C 221.293,156 230.024,163.835 230.024,173.5 C 230.024,183.165 221.293,191 210.524,191 L 132.524,191 C 121.754,191 113.024,183.165 113.024,173.5 C 113.024,163.835 121.754,156 132.524,156z"/>
    <path style="fill: none; fill-opacity:0; stroke-width: 2; stroke: #000000" d="M 132.524 156 L 210.524,156 C 221.293,156 230.024,163.835 230.024,173.5 C 230.024,183.165 221.293,191 210.524,191 L 132.524,191 C 121.754,191 113.024,183.165 113.024,173.5 C 113.024,163.835 121.754,156 132.524,156"/>
    <text font-size="12.8" style="fill: #000000;text-anchor:middle;font-family:sans-serif;font-style:normal;font-weight:normal" x="171.524" y="177.5">
      <tspan x="171.524" y="177.5">pipe-fn-1</tspan>
    </text>
  </g>
  <g>
    <line style="fill: none; fill-opacity:0; stroke-width: 2; stroke: #000000" x1="172.524" y1="124.158" x2="171.664" y2="151.53"/>
    <polyline style="fill: none; fill-opacity:0; stroke-width: 2; stroke: #000000" points="166.91,143.613 171.594,153.765 176.905,143.927 "/>
  </g>
  <g>
    <path style="fill: #ffffff" d="M 131.924 223.316 L 209.924,223.316 C 220.693,223.316 229.424,231.151 229.424,240.816 C 229.424,250.481 220.693,258.316 209.924,258.316 L 131.924,258.316 C 121.154,258.316 112.424,250.481 112.424,240.816 C 112.424,231.151 121.154,223.316 131.924,223.316z"/>
    <path style="fill: none; fill-opacity:0; stroke-width: 2; stroke: #000000" d="M 131.924 223.316 L 209.924,223.316 C 220.693,223.316 229.424,231.151 229.424,240.816 C 229.424,250.481 220.693,258.316 209.924,258.316 L 131.924,258.316 C 121.154,258.316 112.424,250.481 112.424,240.816 C 112.424,231.151 121.154,223.316 131.924,223.316"/>
    <text font-size="12.8" style="fill: #000000;text-anchor:middle;font-family:sans-serif;font-style:normal;font-weight:normal" x="170.924" y="244.816">
      <tspan x="170.924" y="244.816">pipe-fn-2</tspan>
    </text>
  </g>
  <g>
    <line style="fill: none; fill-opacity:0; stroke-width: 2; stroke: #000000" x1="171.524" y1="191" x2="171.007" y2="218.845"/>
    <polyline style="fill: none; fill-opacity:0; stroke-width: 2; stroke: #000000" points="166.152,210.989 170.965,221.08 176.15,211.175 "/>
  </g>
  <g>
    <path style="fill: #ffffff" d="M 131.324 290.616 L 209.324,290.616 C 220.093,290.616 228.824,298.451 228.824,308.116 C 228.824,317.781 220.093,325.616 209.324,325.616 L 131.324,325.616 C 120.554,325.616 111.824,317.781 111.824,308.116 C 111.824,298.451 120.554,290.616 131.324,290.616z"/>
    <path style="fill: none; fill-opacity:0; stroke-width: 2; stroke: #000000" d="M 131.324 290.616 L 209.324,290.616 C 220.093,290.616 228.824,298.451 228.824,308.116 C 228.824,317.781 220.093,325.616 209.324,325.616 L 131.324,325.616 C 120.554,325.616 111.824,317.781 111.824,308.116 C 111.824,298.451 120.554,290.616 131.324,290.616"/>
    <text font-size="12.8" style="fill: #000000;text-anchor:middle;font-family:sans-serif;font-style:normal;font-weight:normal" x="170.324" y="312.116">
      <tspan x="170.324" y="312.116">pipe-fn-3</tspan>
    </text>
  </g>
  <g>
    <line style="fill: none; fill-opacity:0; stroke-width: 2; stroke: #000000" x1="170.924" y1="258.316" x2="170.407" y2="286.145"/>
    <polyline style="fill: none; fill-opacity:0; stroke-width: 2; stroke: #000000" points="165.552,278.289 170.365,288.38 175.55,278.475 "/>
  </g>
  <text font-size="12.8" style="fill: #000000;text-anchor:start;font-family:sans-serif;font-style:normal;font-weight:normal" x="167.4" y="373.3">
    <tspan x="167.4" y="373.3"></tspan>
  </text>
  <text font-size="12.8" style="fill: #000000;text-anchor:start;font-family:sans-serif;font-style:normal;font-weight:normal" x="121.424" y="372.3">
    <tspan x="121.424" y="372.3">   Warehouse</tspan>
  </text>
  <g>
    <line style="fill: none; fill-opacity:0; stroke-width: 2; stroke: #000000" x1="113.424" y1="356.3" x2="113.424" y2="379.458"/>
    <line style="fill: none; fill-opacity:0; stroke-width: 2; stroke: #000000" x1="113.424" y1="356.3" x2="232.424" y2="356.3"/>
    <line style="fill: none; fill-opacity:0; stroke-width: 2; stroke: #000000" x1="113.424" y1="379.458" x2="232.424" y2="379.458"/>
    <text font-size="12.8" style="fill: #000000;text-anchor:middle;font-family:sans-serif;font-style:normal;font-weight:normal" x="175.899" y="372.458">
      <tspan x="175.899" y="372.458"></tspan>
    </text>
  </g>
  <g>
    <line style="fill: none; fill-opacity:0; stroke-width: 2; stroke: #000000" x1="170.324" y1="325.616" x2="170.411" y2="354.828"/>
    <polyline style="fill: none; fill-opacity:0; stroke-width: 2; stroke: #000000" points="165.387,347.079 170.417,357.064 175.387,347.049 "/>
  </g>
  <text font-size="15.8044" style="fill: #000000;text-anchor:start;font-family:sans-serif;font-style:normal;font-weight:700" x="73.0238" y="89">
    <tspan x="73.0238" y="89">(pipeline, pure function)</tspan>
  </text>
  <g>
    <line style="fill: none; fill-opacity:0; stroke-width: 2; stroke: #000000" x1="498.224" y1="90.3004" x2="527.741" y2="117.566"/>
    <polyline style="fill: none; fill-opacity:0; stroke-width: 2; stroke: #000000" points="518.645,115.97 529.383,119.083 525.43,108.625 "/>
  </g>
  <g>
    <path style="fill: #ffffff" d="M 383.439 123 L 764.339,123 C 816.93,123 859.564,131.507 859.564,142 C 859.564,152.493 816.93,161 764.339,161 L 383.439,161 C 330.847,161 288.214,152.493 288.214,142 C 288.214,131.507 330.847,123 383.439,123z"/>
    <path style="fill: none; fill-opacity:0; stroke-width: 2; stroke: #000000" d="M 383.439 123 L 764.339,123 C 816.93,123 859.564,131.507 859.564,142 C 859.564,152.493 816.93,161 764.339,161 L 383.439,161 C 330.847,161 288.214,152.493 288.214,142 C 288.214,131.507 330.847,123 383.439,123"/>
    <text font-size="12.8" style="fill: #000000;text-anchor:middle;font-family:sans-serif;font-style:normal;font-weight:normal" x="573.889" y="138">
      <tspan x="573.889" y="138">Virtual Unified Warehouse, Integration Layer (Unified DAL)</tspan>
      <tspan x="573.889" y="154">Side Effects: Input Data, Trading (Purchasing) Platform</tspan>
    </text>
  </g>
  <text font-size="12.8" style="fill: #000000;text-anchor:start;font-family:sans-serif;font-style:normal;font-weight:normal" x="544.4" y="262.986">
    <tspan x="544.4" y="262.986"></tspan>
  </text>
  <text font-size="14.6756" style="fill: #000000;text-anchor:start;font-family:sans-serif;font-style:normal;font-weight:700" x="438.424" y="262.986">
    <tspan x="438.424" y="262.986">Warehouse(AppDataCenter)</tspan>
    <tspan x="438.424" y="281.33">       like RMDB, Pool</tspan>
  </text>
  <g>
    <line style="fill: none; fill-opacity:0; stroke-width: 2; stroke: #000000" x1="436.026" y1="247" x2="436.026" y2="290"/>
    <line style="fill: none; fill-opacity:0; stroke-width: 2; stroke: #000000" x1="436.026" y1="247" x2="682.026" y2="247"/>
    <line style="fill: none; fill-opacity:0; stroke-width: 2; stroke: #000000" x1="436.026" y1="290" x2="682.026" y2="290"/>
    <text font-size="12.8" style="fill: #000000;text-anchor:middle;font-family:sans-serif;font-style:normal;font-weight:normal" x="565.176" y="273.575">
      <tspan x="565.176" y="273.575"></tspan>
    </text>
  </g>
  <g>
    <path style="fill: #ffffff" d="M 470.849 212.634 L 635,212.634 C 657.664,212.634 676.037,220.469 676.037,230.134 C 676.037,239.799 657.664,247.634 635,247.634 L 470.849,247.634 C 448.185,247.634 429.812,239.799 429.812,230.134 C 429.812,220.469 448.185,212.634 470.849,212.634z"/>
    <path style="fill: none; fill-opacity:0; stroke-width: 2; stroke: #000000" d="M 470.849 212.634 L 635,212.634 C 657.664,212.634 676.037,220.469 676.037,230.134 C 676.037,239.799 657.664,247.634 635,247.634 L 470.849,247.634 C 448.185,247.634 429.812,239.799 429.812,230.134 C 429.812,220.469 448.185,212.634 470.849,212.634"/>
    <text font-size="12.8" style="fill: #000000;text-anchor:middle;font-family:sans-serif;font-style:normal;font-weight:normal" x="552.925" y="234.134">
      <tspan x="552.925" y="234.134">Acceptance check (pipe)</tspan>
    </text>
  </g>
  <g>
    <line style="fill: none; fill-opacity:0; stroke-width: 2; stroke: #000000" x1="552.524" y1="162.318" x2="552.888" y2="208.162"/>
    <polyline style="fill: none; fill-opacity:0; stroke-width: 2; stroke: #000000" points="547.827,200.438 552.906,210.398 557.827,200.359 "/>
  </g>
  <g>
    <line style="fill: none; fill-opacity:0; stroke-width: 2; stroke: #000000" x1="550.554" y1="288.3" x2="551.78" y2="328.752"/>
    <polyline style="fill: none; fill-opacity:0; stroke-width: 2; stroke: #000000" points="546.547,321.143 551.848,330.987 556.543,320.84 "/>
  </g>
  <g>
    <path style="fill: #ffffff" d="M 385.14 332.112 L 766.039,332.112 C 818.631,332.112 861.265,340.619 861.265,351.112 C 861.265,361.605 818.631,370.112 766.039,370.112 L 385.14,370.112 C 332.548,370.112 289.915,361.605 289.915,351.112 C 289.915,340.619 332.548,332.112 385.14,332.112z"/>
    <path style="fill: none; fill-opacity:0; stroke-width: 2; stroke: #000000" d="M 385.14 332.112 L 766.039,332.112 C 818.631,332.112 861.265,340.619 861.265,351.112 C 861.265,361.605 818.631,370.112 766.039,370.112 L 385.14,370.112 C 332.548,370.112 289.915,361.605 289.915,351.112 C 289.915,340.619 332.548,332.112 385.14,332.112"/>
    <text font-size="12.8" style="fill: #000000;text-anchor:middle;font-family:sans-serif;font-style:normal;font-weight:normal" x="575.59" y="347.112">
      <tspan x="575.59" y="347.112">Virtual Unified Warehouse, Integration Layer (Unified DAL)</tspan>
      <tspan x="575.59" y="363.112">Side Effects: Output Data, Trading (Sales) Platform</tspan>
    </text>
  </g>
  <g>
    <line style="fill: none; fill-opacity:0; stroke-width: 2; stroke: #000000" x1="508.554" y1="371.3" x2="477.212" y2="413.704"/>
    <polyline style="fill: none; fill-opacity:0; stroke-width: 2; stroke: #000000" points="477.806,404.488 475.883,415.502 485.848,410.432 "/>
  </g>
  <g>
    <path style="fill: #ffffff" d="M 305.839 232 L 388.539,232 C 399.957,232 409.214,239.163 409.214,248 C 409.214,256.837 399.957,264 388.539,264 L 305.839,264 C 294.421,264 285.164,256.837 285.164,248 C 285.164,239.163 294.421,232 305.839,232z"/>
    <path style="fill: none; fill-opacity:0; stroke-width: 2; stroke: #000000" d="M 305.839 232 L 388.539,232 C 399.957,232 409.214,239.163 409.214,248 C 409.214,256.837 399.957,264 388.539,264 L 305.839,264 C 294.421,264 285.164,256.837 285.164,248 C 285.164,239.163 294.421,232 305.839,232"/>
    <text font-size="12.8" style="fill: #000000;text-anchor:middle;font-family:sans-serif;font-style:normal;font-weight:normal" x="347.189" y="252">
      <tspan x="347.189" y="252">Workshop A</tspan>
    </text>
  </g>
  <g>
    <line style="fill: none; fill-opacity:0; stroke-width: 2; stroke: #000000" x1="403.158" y1="236.686" x2="425.469" y2="231.202"/>
    <polyline style="fill: none; fill-opacity:0; stroke-width: 2; stroke: #000000" points="419.123,237.91 427.641,230.668 416.736,228.199 "/>
  </g>
  <g>
    <path style="fill: #ffffff" d="M 738.1 234 L 828.351,234 C 840.811,234 850.913,240.492 850.913,248.5 C 850.913,256.508 840.811,263 828.351,263 L 738.1,263 C 725.64,263 715.538,256.508 715.538,248.5 C 715.538,240.492 725.64,234 738.1,234z"/>
    <path style="fill: none; fill-opacity:0; stroke-width: 2; stroke: #000000" d="M 738.1 234 L 828.351,234 C 840.811,234 850.913,240.492 850.913,248.5 C 850.913,256.508 840.811,263 828.351,263 L 738.1,263 C 725.64,263 715.538,256.508 715.538,248.5 C 715.538,240.492 725.64,234 738.1,234"/>
    <text font-size="12.8" style="fill: #000000;text-anchor:middle;font-family:sans-serif;font-style:normal;font-weight:normal" x="783.225" y="252.5">
      <tspan x="783.225" y="252.5">Workshop B</tspan>
    </text>
  </g>
  <g>
    <line style="fill: none; fill-opacity:0; stroke-width: 2; stroke: #000000" x1="722.146" y1="238.248" x2="680.44" y2="230.909"/>
    <polyline style="fill: none; fill-opacity:0; stroke-width: 2; stroke: #000000" points="688.953,227.33 678.238,230.522 687.22,237.179 "/>
  </g>
  <g>
    <line style="fill: none; fill-opacity:0; stroke-width: 2; stroke: #000000" x1="436.026" y1="268.5" x2="407.465" y2="260.518"/>
    <polyline style="fill: none; fill-opacity:0; stroke-width: 2; stroke: #000000" points="416.288,257.792 405.312,259.916 413.597,267.423 "/>
  </g>
  <g>
    <line style="fill: none; fill-opacity:0; stroke-width: 2; stroke: #000000" x1="682.026" y1="268.5" x2="717.8" y2="259.808"/>
    <polyline style="fill: none; fill-opacity:0; stroke-width: 2; stroke: #000000" points="711.436,266.5 719.973,259.28 709.075,256.782 "/>
  </g>
  <text font-size="10.16" style="fill: #000000;text-anchor:start;font-family:sans-serif;font-style:normal;font-weight:normal" x="63.0258" y="393.5">
    <tspan x="63.0258" y="393.5">The Grand Unified Programming Theory:</tspan>
    <tspan x="63.0258" y="406.2">The Pure Function Pipeline Data Flow with Warehouse/Workshop Model </tspan>
    <tspan x="63.0258" y="418.9">https://github.com/linpengcheng/PurefunctionPipelineDataflow</tspan>
    <tspan x="63.0258" y="431.6">Copyright © 2018 Lin Pengcheng. All rights reserved.</tspan>
  </text>
  <text font-size="20.32" style="fill: #000000;text-anchor:start;font-family:sans-serif;font-style:normal;font-weight:700" x="176.026" y="40.0722">
    <tspan x="176.026" y="40.0722">Warehouse/Workshop Model</tspan>
  </text>
  <text font-size="12.8" style="fill: #000000;text-anchor:start;font-family:sans-serif;font-style:normal;font-weight:normal" x="461.026" y="274.072">
    <tspan x="461.026" y="274.072">  </tspan>
  </text>
  <text font-size="15.8044" style="fill: #000000;text-anchor:start;font-family:sans-serif;font-style:normal;font-weight:700" x="126" y="67">
    <tspan x="126" y="67">Workshop</tspan>
  </text>
  <g>
    <line style="fill: none; fill-opacity:0; stroke-width: 2; stroke: #000000" x1="613.624" y1="89.6004" x2="577.312" y2="120.122"/>
    <polyline style="fill: none; fill-opacity:0; stroke-width: 2; stroke: #000000" points="580.038,111.299 575.6,121.561 586.472,118.954 "/>
  </g>
  <g>
    <line style="fill: none; fill-opacity:0; stroke-width: 2; stroke: #000000" x1="595.244" y1="371.12" x2="640.42" y2="417.11"/>
    <polyline style="fill: none; fill-opacity:0; stroke-width: 2; stroke: #000000" points="631.412,415.075 641.987,418.705 638.546,408.067 "/>
  </g>
  <text font-size="10.16" style="fill: #000000;text-anchor:start;font-family:sans-serif;font-style:normal;font-weight:normal" x="64" y="450.5">
    <tspan x="64" y="450.5">My programming aesthetic standards:</tspan>
    <tspan x="64" y="463.2">Simplicity, unity, order, symmetry and definiteness.</tspan>
  </text>
  <text font-size="11.2889" style="fill: #000000;text-anchor:start;font-family:sans-serif;font-style:normal;font-weight:normal" x="508.916" y="40.2222">
    <tspan x="508.916" y="40.2222">Software is a factory that produces data.</tspan>
  </text>
  <g>
    <line style="fill: none; fill-opacity:0; stroke-width: 2; stroke: #000000" x1="379.21" y1="50.3004" x2="379.21" y2="90.3004"/>
    <line style="fill: none; fill-opacity:0; stroke-width: 2; stroke: #000000" x1="379.21" y1="50.3004" x2="537.894" y2="50.3004"/>
    <line style="fill: none; fill-opacity:0; stroke-width: 2; stroke: #000000" x1="379.21" y1="90.3004" x2="537.894" y2="90.3004"/>
    <text font-size="12.8" style="fill: #000000;text-anchor:middle;font-family:sans-serif;font-style:normal;font-weight:normal" x="462.519" y="75.3004">
      <tspan x="462.519" y="75.3004">External Warehouse M</tspan>
    </text>
  </g>
  <g>
    <line style="fill: none; fill-opacity:0; stroke-width: 2; stroke: #000000" x1="573.952" y1="49.6004" x2="573.952" y2="89.6004"/>
    <line style="fill: none; fill-opacity:0; stroke-width: 2; stroke: #000000" x1="573.952" y1="49.6004" x2="732.636" y2="49.6004"/>
    <line style="fill: none; fill-opacity:0; stroke-width: 2; stroke: #000000" x1="573.952" y1="89.6004" x2="732.636" y2="89.6004"/>
    <text font-size="12.8" style="fill: #000000;text-anchor:middle;font-family:sans-serif;font-style:normal;font-weight:normal" x="657.261" y="74.6004">
      <tspan x="657.261" y="74.6004">External Warehouse N</tspan>
    </text>
  </g>
  <g>
    <line style="fill: none; fill-opacity:0; stroke-width: 2; stroke: #000000" x1="382.952" y1="419.3" x2="382.952" y2="462.1"/>
    <line style="fill: none; fill-opacity:0; stroke-width: 2; stroke: #000000" x1="382.952" y1="419.3" x2="541.636" y2="419.3"/>
    <line style="fill: none; fill-opacity:0; stroke-width: 2; stroke: #000000" x1="382.952" y1="462.1" x2="541.636" y2="462.1"/>
    <text font-size="12.8" style="fill: #000000;text-anchor:middle;font-family:sans-serif;font-style:normal;font-weight:normal" x="466.261" y="445.77">
      <tspan x="466.261" y="445.77">External Warehouse X</tspan>
    </text>
  </g>
  <g>
    <line style="fill: none; fill-opacity:0; stroke-width: 2; stroke: #000000" x1="579.952" y1="419.1" x2="579.952" y2="460.3"/>
    <line style="fill: none; fill-opacity:0; stroke-width: 2; stroke: #000000" x1="579.952" y1="419.1" x2="738.636" y2="419.1"/>
    <line style="fill: none; fill-opacity:0; stroke-width: 2; stroke: #000000" x1="579.952" y1="460.3" x2="738.636" y2="460.3"/>
    <text font-size="12.8" style="fill: #000000;text-anchor:middle;font-family:sans-serif;font-style:normal;font-weight:normal" x="663.261" y="444.73">
      <tspan x="663.261" y="444.73">External Warehouse Y</tspan>
    </text>
  </g>
</svg>
