<?xml version="1.0" encoding="UTF-8" standalone="no"?>
<!DOCTYPE svg PUBLIC "-//W3C//DTD SVG 1.0//EN" "http://www.w3.org/TR/2001/PR-SVG-20010719/DTD/svg10.dtd">
<svg width="37cm" height="19cm" viewBox="73 21 738 361" xmlns="http://www.w3.org/2000/svg" xmlns:xlink="http://www.w3.org/1999/xlink">
  <text font-size="12.8" style="fill: #000000;text-anchor:start;font-family:sans-serif;font-style:normal;font-weight:normal" x="167" y="118">
    <tspan x="167" y="118"></tspan>
  </text>
  <text font-size="12.8" style="fill: #000000;text-anchor:start;font-family:sans-serif;font-style:normal;font-weight:normal" x="121.024" y="117">
    <tspan x="121.024" y="117">    Warehouse</tspan>
  </text>
  <g>
    <line style="fill: none; fill-opacity:0; stroke-width: 2; stroke: #000000" x1="113.024" y1="101" x2="113.024" y2="124.158"/>
    <line style="fill: none; fill-opacity:0; stroke-width: 2; stroke: #000000" x1="113.024" y1="101" x2="232.024" y2="101"/>
    <line style="fill: none; fill-opacity:0; stroke-width: 2; stroke: #000000" x1="113.024" y1="124.158" x2="232.024" y2="124.158"/>
    <text font-size="12.8" style="fill: #000000;text-anchor:middle;font-family:sans-serif;font-style:normal;font-weight:normal" x="175.499" y="117.158">
      <tspan x="175.499" y="117.158"></tspan>
    </text>
  </g>
  <g>
    <path style="fill: #ffffff" d="M 132.524 156 L 210.524,156 C 221.293,156 230.024,163.835 230.024,173.5 C 230.024,183.165 221.293,191 210.524,191 L 132.524,191 C 121.754,191 113.024,183.165 113.024,173.5 C 113.024,163.835 121.754,156 132.524,156z"/>
    <path style="fill: none; fill-opacity:0; stroke-width: 2; stroke: #000000" d="M 132.524 156 L 210.524,156 C 221.293,156 230.024,163.835 230.024,173.5 C 230.024,183.165 221.293,191 210.524,191 L 132.524,191 C 121.754,191 113.024,183.165 113.024,173.5 C 113.024,163.835 121.754,156 132.524,156"/>
    <text font-size="12.8" style="fill: #000000;text-anchor:middle;font-family:sans-serif;font-style:normal;font-weight:normal" x="171.524" y="177.5">
      <tspan x="171.524" y="177.5">pipe-fn-1</tspan>
    </text>
  </g>
  <g>
    <line style="fill: none; fill-opacity:0; stroke-width: 2; stroke: #000000" x1="172.524" y1="124.158" x2="171.664" y2="151.53"/>
    <polyline style="fill: none; fill-opacity:0; stroke-width: 2; stroke: #000000" points="166.91,143.613 171.594,153.765 176.905,143.927 "/>
  </g>
  <g>
    <path style="fill: #ffffff" d="M 131.924 223.316 L 209.924,223.316 C 220.693,223.316 229.424,231.151 229.424,240.816 C 229.424,250.481 220.693,258.316 209.924,258.316 L 131.924,258.316 C 121.154,258.316 112.424,250.481 112.424,240.816 C 112.424,231.151 121.154,223.316 131.924,223.316z"/>
    <path style="fill: none; fill-opacity:0; stroke-width: 2; stroke: #000000" d="M 131.924 223.316 L 209.924,223.316 C 220.693,223.316 229.424,231.151 229.424,240.816 C 229.424,250.481 220.693,258.316 209.924,258.316 L 131.924,258.316 C 121.154,258.316 112.424,250.481 112.424,240.816 C 112.424,231.151 121.154,223.316 131.924,223.316"/>
    <text font-size="12.8" style="fill: #000000;text-anchor:middle;font-family:sans-serif;font-style:normal;font-weight:normal" x="170.924" y="244.816">
      <tspan x="170.924" y="244.816">pipe-fn-2</tspan>
    </text>
  </g>
  <g>
    <line style="fill: none; fill-opacity:0; stroke-width: 2; stroke: #000000" x1="171.524" y1="191" x2="171.007" y2="218.845"/>
    <polyline style="fill: none; fill-opacity:0; stroke-width: 2; stroke: #000000" points="166.152,210.989 170.965,221.08 176.15,211.175 "/>
  </g>
  <g>
    <path style="fill: #ffffff" d="M 131.324 290.616 L 209.324,290.616 C 220.093,290.616 228.824,298.451 228.824,308.116 C 228.824,317.781 220.093,325.616 209.324,325.616 L 131.324,325.616 C 120.554,325.616 111.824,317.781 111.824,308.116 C 111.824,298.451 120.554,290.616 131.324,290.616z"/>
    <path style="fill: none; fill-opacity:0; stroke-width: 2; stroke: #000000" d="M 131.324 290.616 L 209.324,290.616 C 220.093,290.616 228.824,298.451 228.824,308.116 C 228.824,317.781 220.093,325.616 209.324,325.616 L 131.324,325.616 C 120.554,325.616 111.824,317.781 111.824,308.116 C 111.824,298.451 120.554,290.616 131.324,290.616"/>
    <text font-size="12.8" style="fill: #000000;text-anchor:middle;font-family:sans-serif;font-style:normal;font-weight:normal" x="170.324" y="312.116">
      <tspan x="170.324" y="312.116">pipe-fn-3</tspan>
    </text>
  </g>
  <g>
    <line style="fill: none; fill-opacity:0; stroke-width: 2; stroke: #000000" x1="170.924" y1="258.316" x2="170.407" y2="286.145"/>
    <polyline style="fill: none; fill-opacity:0; stroke-width: 2; stroke: #000000" points="165.552,278.289 170.365,288.38 175.55,278.475 "/>
  </g>
  <text font-size="12.8" style="fill: #000000;text-anchor:start;font-family:sans-serif;font-style:normal;font-weight:normal" x="167.4" y="373.3">
    <tspan x="167.4" y="373.3"></tspan>
  </text>
  <text font-size="12.8" style="fill: #000000;text-anchor:start;font-family:sans-serif;font-style:normal;font-weight:normal" x="121.424" y="372.3">
    <tspan x="121.424" y="372.3">   Warehouse</tspan>
  </text>
  <g>
    <line style="fill: none; fill-opacity:0; stroke-width: 2; stroke: #000000" x1="113.424" y1="356.3" x2="113.424" y2="379.458"/>
    <line style="fill: none; fill-opacity:0; stroke-width: 2; stroke: #000000" x1="113.424" y1="356.3" x2="232.424" y2="356.3"/>
    <line style="fill: none; fill-opacity:0; stroke-width: 2; stroke: #000000" x1="113.424" y1="379.458" x2="232.424" y2="379.458"/>
    <text font-size="12.8" style="fill: #000000;text-anchor:middle;font-family:sans-serif;font-style:normal;font-weight:normal" x="175.899" y="372.458">
      <tspan x="175.899" y="372.458"></tspan>
    </text>
  </g>
  <g>
    <line style="fill: none; fill-opacity:0; stroke-width: 2; stroke: #000000" x1="170.324" y1="325.616" x2="170.411" y2="354.828"/>
    <polyline style="fill: none; fill-opacity:0; stroke-width: 2; stroke: #000000" points="165.387,347.079 170.417,357.064 175.387,347.049 "/>
  </g>
  <text font-size="15.8044" style="fill: #000000;text-anchor:start;font-family:sans-serif;font-style:normal;font-weight:700" x="73.0238" y="89">
    <tspan x="73.0238" y="89">(pipeline, pure function)</tspan>
  </text>
  <g>
    <path style="fill: #ffffff" d="M 333.439 147 L 714.339,147 C 766.93,147 809.564,155.507 809.564,166 C 809.564,176.493 766.93,185 714.339,185 L 333.439,185 C 280.848,185 238.214,176.493 238.214,166 C 238.214,155.507 280.848,147 333.439,147z"/>
    <path style="fill: none; fill-opacity:0; stroke-width: 2; stroke: #000000" d="M 333.439 147 L 714.339,147 C 766.93,147 809.564,155.507 809.564,166 C 809.564,176.493 766.93,185 714.339,185 L 333.439,185 C 280.848,185 238.214,176.493 238.214,166 C 238.214,155.507 280.848,147 333.439,147"/>
    <text font-size="12.8" style="fill: #000000;text-anchor:middle;font-family:sans-serif;font-style:normal;font-weight:normal" x="523.889" y="162">
      <tspan x="523.889" y="162">Virtual Unified Warehouse, Integration Layer (Unified DAL)</tspan>
      <tspan x="523.889" y="178">Side Effects: I/O Data, Trading (Purchasing/Sales) Platform</tspan>
    </text>
  </g>
  <text font-size="12.8" style="fill: #000000;text-anchor:start;font-family:sans-serif;font-style:normal;font-weight:normal" x="505.4" y="268.986">
    <tspan x="505.4" y="268.986"></tspan>
  </text>
  <text font-size="14.6756" style="fill: #000000;text-anchor:start;font-family:sans-serif;font-style:normal;font-weight:700" x="397.026" y="273.5">
    <tspan x="397.026" y="273.5">Warehouse(AppDataCenter)</tspan>
    <tspan x="397.026" y="291.845">       like RMDB, Pool</tspan>
  </text>
  <g>
    <line style="fill: none; fill-opacity:0; stroke-width: 2; stroke: #000000" x1="395.026" y1="256" x2="395.026" y2="299"/>
    <line style="fill: none; fill-opacity:0; stroke-width: 2; stroke: #000000" x1="395.026" y1="256" x2="641.026" y2="256"/>
    <line style="fill: none; fill-opacity:0; stroke-width: 2; stroke: #000000" x1="395.026" y1="299" x2="641.026" y2="299"/>
    <text font-size="12.8" style="fill: #000000;text-anchor:middle;font-family:sans-serif;font-style:normal;font-weight:normal" x="524.176" y="282.575">
      <tspan x="524.176" y="282.575"></tspan>
    </text>
  </g>
  <g>
    <path style="fill: #ffffff" d="M 430.849 220.634 L 594.999,220.634 C 617.664,220.634 636.037,228.469 636.037,238.134 C 636.037,247.799 617.664,255.634 594.999,255.634 L 430.849,255.634 C 408.185,255.634 389.812,247.799 389.812,238.134 C 389.812,228.469 408.185,220.634 430.849,220.634z"/>
    <path style="fill: none; fill-opacity:0; stroke-width: 2; stroke: #000000" d="M 430.849 220.634 L 594.999,220.634 C 617.664,220.634 636.037,228.469 636.037,238.134 C 636.037,247.799 617.664,255.634 594.999,255.634 L 430.849,255.634 C 408.185,255.634 389.812,247.799 389.812,238.134 C 389.812,228.469 408.185,220.634 430.849,220.634"/>
    <text font-size="12.8" style="fill: #000000;text-anchor:middle;font-family:sans-serif;font-style:normal;font-weight:normal" x="512.924" y="242.134">
      <tspan x="512.924" y="242.134">Acceptance check (pipe)</tspan>
    </text>
  </g>
  <g>
    <path style="fill: #ffffff" d="M 266.839 238 L 349.539,238 C 360.957,238 370.214,245.163 370.214,254 C 370.214,262.837 360.957,270 349.539,270 L 266.839,270 C 255.421,270 246.164,262.837 246.164,254 C 246.164,245.163 255.421,238 266.839,238z"/>
    <path style="fill: none; fill-opacity:0; stroke-width: 2; stroke: #000000" d="M 266.839 238 L 349.539,238 C 360.957,238 370.214,245.163 370.214,254 C 370.214,262.837 360.957,270 349.539,270 L 266.839,270 C 255.421,270 246.164,262.837 246.164,254 C 246.164,245.163 255.421,238 266.839,238"/>
    <text font-size="12.8" style="fill: #000000;text-anchor:middle;font-family:sans-serif;font-style:normal;font-weight:normal" x="308.189" y="258">
      <tspan x="308.189" y="258">Workshop A</tspan>
    </text>
  </g>
  <g>
    <line style="fill: none; fill-opacity:0; stroke-width: 2; stroke: #000000" x1="364.158" y1="242.686" x2="385.409" y2="238.915"/>
    <polyline style="fill: none; fill-opacity:0; stroke-width: 2; stroke: #000000" points="378.638,245.195 387.61,238.525 376.891,235.349 "/>
  </g>
  <g>
    <path style="fill: #ffffff" d="M 695.101 241 L 785.351,241 C 797.811,241 807.913,247.492 807.913,255.5 C 807.913,263.508 797.811,270 785.351,270 L 695.101,270 C 682.64,270 672.538,263.508 672.538,255.5 C 672.538,247.492 682.64,241 695.101,241z"/>
    <path style="fill: none; fill-opacity:0; stroke-width: 2; stroke: #000000" d="M 695.101 241 L 785.351,241 C 797.811,241 807.913,247.492 807.913,255.5 C 807.913,263.508 797.811,270 785.351,270 L 695.101,270 C 682.64,270 672.538,263.508 672.538,255.5 C 672.538,247.492 682.64,241 695.101,241"/>
    <text font-size="12.8" style="fill: #000000;text-anchor:middle;font-family:sans-serif;font-style:normal;font-weight:normal" x="740.226" y="259.5">
      <tspan x="740.226" y="259.5">Workshop B</tspan>
    </text>
  </g>
  <g>
    <line style="fill: none; fill-opacity:0; stroke-width: 2; stroke: #000000" x1="683.147" y1="244.247" x2="640.472" y2="238.709"/>
    <polyline style="fill: none; fill-opacity:0; stroke-width: 2; stroke: #000000" points="648.815,234.75 638.254,238.422 647.528,244.667 "/>
  </g>
  <g>
    <line style="fill: none; fill-opacity:0; stroke-width: 2; stroke: #000000" x1="395.026" y1="277.5" x2="368.318" y2="266.956"/>
    <polyline style="fill: none; fill-opacity:0; stroke-width: 2; stroke: #000000" points="377.376,265.156 366.238,266.135 373.703,274.458 "/>
  </g>
  <g>
    <line style="fill: none; fill-opacity:0; stroke-width: 2; stroke: #000000" x1="641.026" y1="277.5" x2="674.873" y2="267.07"/>
    <polyline style="fill: none; fill-opacity:0; stroke-width: 2; stroke: #000000" points="668.926,274.135 677.01,266.411 665.981,264.578 "/>
  </g>
  <text font-size="10.16" style="fill: #000000;text-anchor:start;font-family:sans-serif;font-style:normal;font-weight:normal" x="250.026" y="315.5">
    <tspan x="250.026" y="315.5">The Grand Unified Programming Theory:</tspan>
    <tspan x="250.026" y="328.2">The Pure Function Pipeline Data Flow with Warehouse/Workshop Model </tspan>
    <tspan x="250.026" y="340.9">https://github.com/linpengcheng/PurefunctionPipelineDataflow</tspan>
    <tspan x="250.026" y="353.6">Copyright © 2018 Lin Pengcheng. All rights reserved.</tspan>
  </text>
  <text font-size="20.32" style="fill: #000000;text-anchor:start;font-family:sans-serif;font-style:normal;font-weight:700" x="176.026" y="40.0722">
    <tspan x="176.026" y="40.0722">Warehouse/Workshop Model</tspan>
  </text>
  <text font-size="12.8" style="fill: #000000;text-anchor:start;font-family:sans-serif;font-style:normal;font-weight:normal" x="420.026" y="283.072">
    <tspan x="420.026" y="283.072">  </tspan>
  </text>
  <text font-size="15.8044" style="fill: #000000;text-anchor:start;font-family:sans-serif;font-style:normal;font-weight:700" x="126" y="67">
    <tspan x="126" y="67">Workshop</tspan>
  </text>
  <text font-size="10.16" style="fill: #000000;text-anchor:start;font-family:sans-serif;font-style:normal;font-weight:normal" x="251" y="366.5">
    <tspan x="251" y="366.5">My programming aesthetic standards:</tspan>
    <tspan x="251" y="379.2">Simplicity, unity, order, symmetry and definiteness.</tspan>
  </text>
  <text font-size="11.2889" style="fill: #000000;text-anchor:start;font-family:sans-serif;font-style:normal;font-weight:normal" x="508.916" y="40.2222">
    <tspan x="508.916" y="40.2222">Software is a factory that produces data.</tspan>
  </text>
  <g>
    <line style="fill: none; fill-opacity:0; stroke-width: 2; stroke: #000000" x1="313.21" y1="52.3004" x2="313.21" y2="92.3004"/>
    <line style="fill: none; fill-opacity:0; stroke-width: 2; stroke: #000000" x1="313.21" y1="52.3004" x2="471.894" y2="52.3004"/>
    <line style="fill: none; fill-opacity:0; stroke-width: 2; stroke: #000000" x1="313.21" y1="92.3004" x2="471.894" y2="92.3004"/>
    <text font-size="12.8" style="fill: #000000;text-anchor:middle;font-family:sans-serif;font-style:normal;font-weight:normal" x="396.519" y="77.3004">
      <tspan x="396.519" y="77.3004">External Warehouse M</tspan>
    </text>
  </g>
  <g>
    <line style="fill: none; fill-opacity:0; stroke-width: 2; stroke: #000000" x1="565.952" y1="51.6004" x2="565.952" y2="91.6004"/>
    <line style="fill: none; fill-opacity:0; stroke-width: 2; stroke: #000000" x1="565.952" y1="51.6004" x2="724.636" y2="51.6004"/>
    <line style="fill: none; fill-opacity:0; stroke-width: 2; stroke: #000000" x1="565.952" y1="91.6004" x2="724.636" y2="91.6004"/>
    <text font-size="12.8" style="fill: #000000;text-anchor:middle;font-family:sans-serif;font-style:normal;font-weight:normal" x="649.261" y="76.6004">
      <tspan x="649.261" y="76.6004">External Warehouse N</tspan>
    </text>
  </g>
  <g>
    <path style="fill: #ffffff" d="M 305.438 91.3 L 469.588,91.3 C 492.252,91.3 510.625,96.2249 510.625,102.3 C 510.625,108.375 492.252,113.3 469.588,113.3 L 305.438,113.3 C 282.773,113.3 264.4,108.375 264.4,102.3 C 264.4,96.2249 282.773,91.3 305.438,91.3z"/>
    <path style="fill: none; fill-opacity:0; stroke-width: 2; stroke: #000000" d="M 305.438 91.3 L 469.588,91.3 C 492.252,91.3 510.625,96.2249 510.625,102.3 C 510.625,108.375 492.252,113.3 469.588,113.3 L 305.438,113.3 C 282.773,113.3 264.4,108.375 264.4,102.3 C 264.4,96.2249 282.773,91.3 305.438,91.3"/>
    <text font-size="12.8" style="fill: #000000;text-anchor:middle;font-family:sans-serif;font-style:normal;font-weight:normal" x="387.513" y="106.3">
      <tspan x="387.513" y="106.3">Acceptance check (pipe)</tspan>
    </text>
  </g>
  <g>
    <path style="fill: #ffffff" d="M 568.437 92.3 L 732.587,92.3 C 755.252,92.3 773.625,97.2249 773.625,103.3 C 773.625,109.375 755.252,114.3 732.587,114.3 L 568.437,114.3 C 545.773,114.3 527.4,109.375 527.4,103.3 C 527.4,97.2249 545.773,92.3 568.437,92.3z"/>
    <path style="fill: none; fill-opacity:0; stroke-width: 2; stroke: #000000" d="M 568.437 92.3 L 732.587,92.3 C 755.252,92.3 773.625,97.2249 773.625,103.3 C 773.625,109.375 755.252,114.3 732.587,114.3 L 568.437,114.3 C 545.773,114.3 527.4,109.375 527.4,103.3 C 527.4,97.2249 545.773,92.3 568.437,92.3"/>
    <text font-size="12.8" style="fill: #000000;text-anchor:middle;font-family:sans-serif;font-style:normal;font-weight:normal" x="650.512" y="107.3">
      <tspan x="650.512" y="107.3">Acceptance check (pipe)</tspan>
    </text>
  </g>
  <g>
    <line style="fill: none; fill-opacity:0; stroke-width: 2; stroke: #000000" x1="387.519" y1="117.772" x2="387.559" y2="143.75"/>
    <polyline style="fill: none; fill-opacity:0; stroke-width: 2; stroke: #000000" points="392.531,125.528 387.516,115.536 382.531,125.544 "/>
    <polyline style="fill: none; fill-opacity:0; stroke-width: 2; stroke: #000000" points="382.547,135.994 387.563,145.986 392.547,135.978 "/>
  </g>
  <g>
    <line style="fill: none; fill-opacity:0; stroke-width: 2; stroke: #000000" x1="650.519" y1="118.772" x2="650.559" y2="145.75"/>
    <polyline style="fill: none; fill-opacity:0; stroke-width: 2; stroke: #000000" points="655.531,126.529 650.516,116.536 645.531,126.544 "/>
    <polyline style="fill: none; fill-opacity:0; stroke-width: 2; stroke: #000000" points="645.548,137.994 650.563,147.986 655.548,137.979 "/>
  </g>
  <g>
    <line style="fill: none; fill-opacity:0; stroke-width: 2; stroke: #000000" x1="523.848" y1="189.472" x2="523.607" y2="215.75"/>
    <polyline style="fill: none; fill-opacity:0; stroke-width: 2; stroke: #000000" points="528.777,197.281 523.868,187.236 518.777,197.19 "/>
    <polyline style="fill: none; fill-opacity:0; stroke-width: 2; stroke: #000000" points="518.678,207.941 523.587,217.986 528.678,208.032 "/>
  </g>
</svg>
