<?xml version="1.0" encoding="UTF-8" standalone="no"?>
<!DOCTYPE svg PUBLIC "-//W3C//DTD SVG 1.1//EN"
 "http://www.w3.org/Graphics/SVG/1.1/DTD/svg11.dtd">
<!-- Generated by graphviz version 2.40.1 (20161225.0304)
 -->
<!-- Title: WarehouseWorkshopModel Pages: 1 -->
<svg width="698pt" height="414pt"
 viewBox="0.00 0.00 698.00 413.60" xmlns="http://www.w3.org/2000/svg" xmlns:xlink="http://www.w3.org/1999/xlink">
<g id="graph0" class="graph" transform="scale(1 1) rotate(0) translate(4 409.6)">
<title>WarehouseWorkshopModel</title>
<polygon fill="#ffffff" stroke="transparent" points="-4,4 -4,-409.6 694,-409.6 694,4 -4,4"/>
<text text-anchor="middle" x="345" y="-8.2" font-family="Times,serif" font-size="14.00" fill="#000000">Warehouse/Workshop Model (Author: Lin Pengcheng https://github.com/linpengcheng/PurefunctionPipelineDataflow)</text>
<g id="clust1" class="cluster">
<title>cluster_0</title>
<polygon fill="#d3d3d3" stroke="#d3d3d3" points="8,-32.8 8,-397.6 244,-397.6 244,-32.8 8,-32.8"/>
<text text-anchor="middle" x="126" y="-381" font-family="Times,serif" font-size="14.00" fill="#000000">Workshop</text>
</g>
<g id="clust2" class="cluster">
<title>cluster_1</title>
<polygon fill="none" stroke="#0000ff" points="252,-104.8 252,-397.6 682,-397.6 682,-104.8 252,-104.8"/>
<text text-anchor="middle" x="467" y="-381" font-family="Times,serif" font-size="14.00" fill="#000000">System</text>
</g>
<!-- input_standardized_data -->
<g id="node1" class="node">
<title>input_standardized_data</title>
<ellipse fill="#ffffff" stroke="#ffffff" cx="126" cy="-346.8" rx="105.3605" ry="18"/>
<text text-anchor="middle" x="126" y="-342.6" font-family="Times,serif" font-size="14.00" fill="#000000">input_standardized_data</text>
</g>
<!-- pipe_fn_1 -->
<g id="node2" class="node">
<title>pipe_fn_1</title>
<ellipse fill="#ffffff" stroke="#ffffff" cx="126" cy="-274.8" rx="50.3858" ry="18"/>
<text text-anchor="middle" x="126" y="-270.6" font-family="Times,serif" font-size="14.00" fill="#000000">pipe_fn_1</text>
</g>
<!-- input_standardized_data&#45;&gt;pipe_fn_1 -->
<g id="edge1" class="edge">
<title>input_standardized_data&#45;&gt;pipe_fn_1</title>
<path fill="none" stroke="#000000" d="M126,-328.6314C126,-320.931 126,-311.7743 126,-303.2166"/>
<polygon fill="#000000" stroke="#000000" points="129.5001,-303.2132 126,-293.2133 122.5001,-303.2133 129.5001,-303.2132"/>
</g>
<!-- pipe_fn_2 -->
<g id="node3" class="node">
<title>pipe_fn_2</title>
<ellipse fill="#ffffff" stroke="#ffffff" cx="126" cy="-202.8" rx="50.3858" ry="18"/>
<text text-anchor="middle" x="126" y="-198.6" font-family="Times,serif" font-size="14.00" fill="#000000">pipe_fn_2</text>
</g>
<!-- pipe_fn_1&#45;&gt;pipe_fn_2 -->
<g id="edge2" class="edge">
<title>pipe_fn_1&#45;&gt;pipe_fn_2</title>
<path fill="none" stroke="#000000" d="M126,-256.6314C126,-248.931 126,-239.7743 126,-231.2166"/>
<polygon fill="#000000" stroke="#000000" points="129.5001,-231.2132 126,-221.2133 122.5001,-231.2133 129.5001,-231.2132"/>
</g>
<!-- pipe_fn_3 -->
<g id="node4" class="node">
<title>pipe_fn_3</title>
<ellipse fill="#ffffff" stroke="#ffffff" cx="126" cy="-130.8" rx="50.3858" ry="18"/>
<text text-anchor="middle" x="126" y="-126.6" font-family="Times,serif" font-size="14.00" fill="#000000">pipe_fn_3</text>
</g>
<!-- pipe_fn_2&#45;&gt;pipe_fn_3 -->
<g id="edge3" class="edge">
<title>pipe_fn_2&#45;&gt;pipe_fn_3</title>
<path fill="none" stroke="#000000" d="M126,-184.6314C126,-176.931 126,-167.7743 126,-159.2166"/>
<polygon fill="#000000" stroke="#000000" points="129.5001,-159.2132 126,-149.2133 122.5001,-159.2133 129.5001,-159.2132"/>
</g>
<!-- output_standardized_data -->
<g id="node5" class="node">
<title>output_standardized_data</title>
<ellipse fill="#ffffff" stroke="#ffffff" cx="126" cy="-58.8" rx="110.018" ry="18"/>
<text text-anchor="middle" x="126" y="-54.6" font-family="Times,serif" font-size="14.00" fill="#000000">output_standardized_data</text>
</g>
<!-- pipe_fn_3&#45;&gt;output_standardized_data -->
<g id="edge4" class="edge">
<title>pipe_fn_3&#45;&gt;output_standardized_data</title>
<path fill="none" stroke="#000000" d="M126,-112.6314C126,-104.931 126,-95.7743 126,-87.2166"/>
<polygon fill="#000000" stroke="#000000" points="129.5001,-87.2132 126,-77.2133 122.5001,-87.2133 129.5001,-87.2132"/>
</g>
<!-- Workshop_1 -->
<g id="node6" class="node">
<title>Workshop_1</title>
<ellipse fill="#d3d3d3" stroke="#000000" cx="583" cy="-346.8" rx="60.8429" ry="18"/>
<text text-anchor="middle" x="583" y="-342.6" font-family="Times,serif" font-size="14.00" fill="#000000">Workshop_1</text>
</g>
<!-- Acceptance_Check -->
<g id="node7" class="node">
<title>Acceptance_Check</title>
<ellipse fill="#d3d3d3" stroke="#000000" cx="406" cy="-274.8" rx="85.6357" ry="18"/>
<text text-anchor="middle" x="406" y="-270.6" font-family="Times,serif" font-size="14.00" fill="#000000">Acceptance_Check</text>
</g>
<!-- Workshop_1&#45;&gt;Acceptance_Check -->
<g id="edge5" class="edge">
<title>Workshop_1&#45;&gt;Acceptance_Check</title>
<path fill="none" stroke="#000000" d="M547.1814,-332.2297C520.6806,-321.4497 484.271,-306.6391 455.0646,-294.7585"/>
<polygon fill="#000000" stroke="#000000" points="456.0425,-291.3778 445.4607,-290.8518 453.4048,-297.8619 456.0425,-291.3778"/>
</g>
<!-- Warehouse_or_RMDB_or_AppCoreDataModel -->
<g id="node10" class="node">
<title>Warehouse_or_RMDB_or_AppCoreDataModel</title>
<ellipse fill="#d3d3d3" stroke="#000000" cx="477" cy="-202.8" rx="197.2846" ry="18"/>
<text text-anchor="middle" x="477" y="-198.6" font-family="Times,serif" font-size="14.00" fill="#000000">Warehouse_or_RMDB_or_AppCoreDataModel</text>
</g>
<!-- Acceptance_Check&#45;&gt;Warehouse_or_RMDB_or_AppCoreDataModel -->
<g id="edge8" class="edge">
<title>Acceptance_Check&#45;&gt;Warehouse_or_RMDB_or_AppCoreDataModel</title>
<path fill="none" stroke="#000000" d="M423.5506,-257.0022C432.1049,-248.3275 442.5461,-237.7391 451.9228,-228.2304"/>
<polygon fill="#000000" stroke="#000000" points="454.6288,-230.471 459.1582,-220.8931 449.6446,-225.556 454.6288,-230.471"/>
</g>
<!-- Workshop_2 -->
<g id="node8" class="node">
<title>Workshop_2</title>
<ellipse fill="#d3d3d3" stroke="#000000" cx="399" cy="-130.8" rx="60.8429" ry="18"/>
<text text-anchor="middle" x="399" y="-126.6" font-family="Times,serif" font-size="14.00" fill="#000000">Workshop_2</text>
</g>
<!-- Workshop_2&#45;&gt;Acceptance_Check -->
<g id="edge6" class="edge">
<title>Workshop_2&#45;&gt;Acceptance_Check</title>
<path fill="none" stroke="#000000" d="M344.8609,-139.2759C317.8363,-146.5393 287.4678,-159.9794 271,-184.8 262.1543,-198.1324 262.0299,-207.5509 271,-220.8 284.1906,-240.2829 305.6719,-252.7371 327.6581,-260.698"/>
<polygon fill="#000000" stroke="#000000" points="326.8333,-264.1121 337.4268,-263.9453 329.0414,-257.4695 326.8333,-264.1121"/>
</g>
<!-- External_Standardized_Data -->
<g id="node9" class="node">
<title>External_Standardized_Data</title>
<ellipse fill="#d3d3d3" stroke="#000000" cx="382" cy="-346.8" rx="122.0901" ry="18"/>
<text text-anchor="middle" x="382" y="-342.6" font-family="Times,serif" font-size="14.00" fill="#000000">External_Standardized_Data</text>
</g>
<!-- External_Standardized_Data&#45;&gt;Acceptance_Check -->
<g id="edge7" class="edge">
<title>External_Standardized_Data&#45;&gt;Acceptance_Check</title>
<path fill="none" stroke="#000000" d="M388.0562,-328.6314C390.6512,-320.8463 393.7424,-311.5729 396.6218,-302.9347"/>
<polygon fill="#000000" stroke="#000000" points="400.0203,-303.8069 399.8622,-293.2133 393.3795,-301.5933 400.0203,-303.8069"/>
</g>
<!-- Warehouse_or_RMDB_or_AppCoreDataModel&#45;&gt;Workshop_1 -->
<g id="edge9" class="edge">
<title>Warehouse_or_RMDB_or_AppCoreDataModel&#45;&gt;Workshop_1</title>
<path fill="none" stroke="#000000" d="M490.4384,-221.056C509.0166,-246.2942 542.6491,-291.9837 563.8517,-320.7872"/>
<polygon fill="#000000" stroke="#000000" points="561.2554,-323.1643 570.0023,-329.1428 566.8928,-319.0145 561.2554,-323.1643"/>
</g>
<!-- Warehouse_or_RMDB_or_AppCoreDataModel&#45;&gt;Workshop_2 -->
<g id="edge10" class="edge">
<title>Warehouse_or_RMDB_or_AppCoreDataModel&#45;&gt;Workshop_2</title>
<path fill="none" stroke="#000000" d="M457.3173,-184.6314C447.512,-175.5803 435.5272,-164.5174 424.9782,-154.7799"/>
<polygon fill="#000000" stroke="#000000" points="427.3245,-152.1825 417.6024,-147.9715 422.5765,-157.3261 427.3245,-152.1825"/>
</g>
</g>
</svg>