<?xml version="1.0" encoding="UTF-8" standalone="no"?>
<!DOCTYPE svg PUBLIC "-//W3C//DTD SVG 1.0//EN" "http://www.w3.org/TR/2001/PR-SVG-20010719/DTD/svg10.dtd">
<svg width="38cm" height="16cm" viewBox="8 1 746 320" xmlns="http://www.w3.org/2000/svg" xmlns:xlink="http://www.w3.org/1999/xlink">
  <text font-size="12.8" style="fill: #000000;text-anchor:start;font-family:sans-serif;font-style:normal;font-weight:normal" x="102" y="102">
    <tspan x="102" y="102"></tspan>
  </text>
  <text font-size="12.8" style="fill: #000000;text-anchor:start;font-family:sans-serif;font-style:normal;font-weight:normal" x="56.0238" y="101">
    <tspan x="56.0238" y="101">    Warehouse</tspan>
  </text>
  <g>
    <line style="fill: none; fill-opacity:0; stroke-width: 2; stroke: #000000" x1="44" y1="85" x2="44" y2="108.158"/>
    <line style="fill: none; fill-opacity:0; stroke-width: 2; stroke: #000000" x1="44" y1="85" x2="172" y2="85"/>
    <line style="fill: none; fill-opacity:0; stroke-width: 2; stroke: #000000" x1="44" y1="108.158" x2="172" y2="108.158"/>
    <text font-size="12.8" style="fill: #000000;text-anchor:middle;font-family:sans-serif;font-style:normal;font-weight:normal" x="111.2" y="101.158">
      <tspan x="111.2" y="101.158"></tspan>
    </text>
  </g>
  <g>
    <path style="fill: #ffffff" d="M 67.5238 140 L 145.524,140 C 156.293,140 165.024,147.835 165.024,157.5 C 165.024,167.165 156.293,175 145.524,175 L 67.5238,175 C 56.7542,175 48.0238,167.165 48.0238,157.5 C 48.0238,147.835 56.7542,140 67.5238,140z"/>
    <path style="fill: none; fill-opacity:0; stroke-width: 2; stroke: #000000" d="M 67.5238 140 L 145.524,140 C 156.293,140 165.024,147.835 165.024,157.5 C 165.024,167.165 156.293,175 145.524,175 L 67.5238,175 C 56.7542,175 48.0238,167.165 48.0238,157.5 C 48.0238,147.835 56.7542,140 67.5238,140"/>
    <text font-size="12.8" style="fill: #000000;text-anchor:middle;font-family:sans-serif;font-style:normal;font-weight:normal" x="106.524" y="161.5">
      <tspan x="106.524" y="161.5">pipe-fn-1</tspan>
    </text>
  </g>
  <g>
    <line style="fill: none; fill-opacity:0; stroke-width: 2; stroke: #000000" x1="108" y1="108.158" x2="106.731" y2="135.533"/>
    <polyline style="fill: none; fill-opacity:0; stroke-width: 2; stroke: #000000" points="102.096,127.546 106.627,137.766 112.085,128.009 "/>
  </g>
  <g>
    <path style="fill: #ffffff" d="M 66.9238 207.316 L 144.924,207.316 C 155.693,207.316 164.424,215.151 164.424,224.816 C 164.424,234.481 155.693,242.316 144.924,242.316 L 66.9238,242.316 C 56.1542,242.316 47.4238,234.481 47.4238,224.816 C 47.4238,215.151 56.1542,207.316 66.9238,207.316z"/>
    <path style="fill: none; fill-opacity:0; stroke-width: 2; stroke: #000000" d="M 66.9238 207.316 L 144.924,207.316 C 155.693,207.316 164.424,215.151 164.424,224.816 C 164.424,234.481 155.693,242.316 144.924,242.316 L 66.9238,242.316 C 56.1542,242.316 47.4238,234.481 47.4238,224.816 C 47.4238,215.151 56.1542,207.316 66.9238,207.316"/>
    <text font-size="12.8" style="fill: #000000;text-anchor:middle;font-family:sans-serif;font-style:normal;font-weight:normal" x="105.924" y="228.816">
      <tspan x="105.924" y="228.816">pipe-fn-2</tspan>
    </text>
  </g>
  <g>
    <line style="fill: none; fill-opacity:0; stroke-width: 2; stroke: #000000" x1="106.524" y1="175" x2="106.007" y2="202.845"/>
    <polyline style="fill: none; fill-opacity:0; stroke-width: 2; stroke: #000000" points="101.152,194.989 105.965,205.08 111.15,195.175 "/>
  </g>
  <g>
    <path style="fill: #ffffff" d="M 58.6489 274.616 L 151.999,274.616 C 164.888,274.616 175.336,279.541 175.336,285.616 C 175.336,291.691 164.888,296.616 151.999,296.616 L 58.6489,296.616 C 45.7599,296.616 35.3114,291.691 35.3114,285.616 C 35.3114,279.541 45.7599,274.616 58.6489,274.616z"/>
    <path style="fill: none; fill-opacity:0; stroke-width: 2; stroke: #000000" d="M 58.6489 274.616 L 151.999,274.616 C 164.888,274.616 175.336,279.541 175.336,285.616 C 175.336,291.691 164.888,296.616 151.999,296.616 L 58.6489,296.616 C 45.7599,296.616 35.3114,291.691 35.3114,285.616 C 35.3114,279.541 45.7599,274.616 58.6489,274.616"/>
    <text font-size="12.8" style="fill: #000000;text-anchor:middle;font-family:sans-serif;font-style:normal;font-weight:normal" x="105.324" y="289.616">
      <tspan x="105.324" y="289.616">Accept.Check</tspan>
    </text>
  </g>
  <g>
    <line style="fill: none; fill-opacity:0; stroke-width: 2; stroke: #000000" x1="105.924" y1="242.316" x2="105.407" y2="270.145"/>
    <polyline style="fill: none; fill-opacity:0; stroke-width: 2; stroke: #000000" points="100.552,262.289 105.365,272.38 110.55,262.475 "/>
  </g>
  <text font-size="12.8" style="fill: #000000;text-anchor:start;font-family:sans-serif;font-style:normal;font-weight:normal" x="106.4" y="313.3">
    <tspan x="106.4" y="313.3"></tspan>
  </text>
  <text font-size="12.8" style="fill: #000000;text-anchor:start;font-family:sans-serif;font-style:normal;font-weight:normal" x="55.4238" y="311.3">
    <tspan x="55.4238" y="311.3">   Warehouse</tspan>
  </text>
  <g>
    <line style="fill: none; fill-opacity:0; stroke-width: 2; stroke: #000000" x1="36" y1="296.3" x2="36" y2="319.458"/>
    <line style="fill: none; fill-opacity:0; stroke-width: 2; stroke: #000000" x1="36" y1="296.3" x2="173" y2="296.3"/>
    <line style="fill: none; fill-opacity:0; stroke-width: 2; stroke: #000000" x1="36" y1="319.458" x2="173" y2="319.458"/>
    <text font-size="12.8" style="fill: #000000;text-anchor:middle;font-family:sans-serif;font-style:normal;font-weight:normal" x="107.925" y="312.458">
      <tspan x="107.925" y="312.458"></tspan>
    </text>
  </g>
  <text font-size="15.8044" style="fill: #000000;text-anchor:start;font-family:sans-serif;font-style:normal;font-weight:700" x="8.0238" y="73">
    <tspan x="8.0238" y="73">(pipeline, pure function)</tspan>
  </text>
  <g>
    <path style="fill: #ffffff" d="M 266.439 113 L 647.339,113 C 699.93,113 742.564,121.507 742.564,132 C 742.564,142.493 699.93,151 647.339,151 L 266.439,151 C 213.848,151 171.214,142.493 171.214,132 C 171.214,121.507 213.848,113 266.439,113z"/>
    <path style="fill: none; fill-opacity:0; stroke-width: 2; stroke: #000000" d="M 266.439 113 L 647.339,113 C 699.93,113 742.564,121.507 742.564,132 C 742.564,142.493 699.93,151 647.339,151 L 266.439,151 C 213.848,151 171.214,142.493 171.214,132 C 171.214,121.507 213.848,113 266.439,113"/>
    <text font-size="12.8" style="fill: #000000;text-anchor:middle;font-family:sans-serif;font-style:normal;font-weight:normal" x="456.889" y="128">
      <tspan x="456.889" y="128">Virtual Unified Warehouse, Integration Layer (Unified DAL)</tspan>
      <tspan x="456.889" y="144">Side Effects: I/O Data, Trading (Purchasing/Sales) Platform</tspan>
    </text>
  </g>
  <text font-size="12.8" style="fill: #000000;text-anchor:start;font-family:sans-serif;font-style:normal;font-weight:normal" x="436.4" y="227.986">
    <tspan x="436.4" y="227.986"></tspan>
  </text>
  <text font-size="14.6756" style="fill: #000000;text-anchor:start;font-family:sans-serif;font-style:normal;font-weight:700" x="328.026" y="232.5">
    <tspan x="328.026" y="232.5">Warehouse(AppDataCenter)</tspan>
    <tspan x="328.026" y="250.844">       like RMDB, Pool</tspan>
  </text>
  <g>
    <line style="fill: none; fill-opacity:0; stroke-width: 2; stroke: #000000" x1="326.026" y1="215" x2="326.026" y2="258"/>
    <line style="fill: none; fill-opacity:0; stroke-width: 2; stroke: #000000" x1="326.026" y1="215" x2="572.026" y2="215"/>
    <line style="fill: none; fill-opacity:0; stroke-width: 2; stroke: #000000" x1="326.026" y1="258" x2="572.026" y2="258"/>
    <text font-size="12.8" style="fill: #000000;text-anchor:middle;font-family:sans-serif;font-style:normal;font-weight:normal" x="455.176" y="241.575">
      <tspan x="455.176" y="241.575"></tspan>
    </text>
  </g>
  <g>
    <path style="fill: #ffffff" d="M 360.899 179.634 L 526.948,179.634 C 549.875,179.634 568.461,187.469 568.461,197.134 C 568.461,206.799 549.875,214.634 526.948,214.634 L 360.899,214.634 C 337.972,214.634 319.386,206.799 319.386,197.134 C 319.386,187.469 337.972,179.634 360.899,179.634z"/>
    <path style="fill: none; fill-opacity:0; stroke-width: 2; stroke: #000000" d="M 360.899 179.634 L 526.948,179.634 C 549.875,179.634 568.461,187.469 568.461,197.134 C 568.461,206.799 549.875,214.634 526.948,214.634 L 360.899,214.634 C 337.972,214.634 319.386,206.799 319.386,197.134 C 319.386,187.469 337.972,179.634 360.899,179.634"/>
    <text font-size="12.8" style="fill: #000000;text-anchor:middle;font-family:sans-serif;font-style:normal;font-weight:normal" x="443.923" y="201.134">
      <tspan x="443.923" y="201.134">Acceptance Check (pipe)</tspan>
    </text>
  </g>
  <g>
    <path style="fill: #ffffff" d="M 197.839 197 L 280.539,197 C 291.957,197 301.214,204.163 301.214,213 C 301.214,221.837 291.957,229 280.539,229 L 197.839,229 C 186.421,229 177.164,221.837 177.164,213 C 177.164,204.163 186.421,197 197.839,197z"/>
    <path style="fill: none; fill-opacity:0; stroke-width: 2; stroke: #000000" d="M 197.839 197 L 280.539,197 C 291.957,197 301.214,204.163 301.214,213 C 301.214,221.837 291.957,229 280.539,229 L 197.839,229 C 186.421,229 177.164,221.837 177.164,213 C 177.164,204.163 186.421,197 197.839,197"/>
    <text font-size="12.8" style="fill: #000000;text-anchor:middle;font-family:sans-serif;font-style:normal;font-weight:normal" x="239.189" y="217">
      <tspan x="239.189" y="217">Workshop A</tspan>
    </text>
  </g>
  <g>
    <line style="fill: none; fill-opacity:0; stroke-width: 2; stroke: #000000" x1="295.158" y1="201.686" x2="314.991" y2="197.96"/>
    <polyline style="fill: none; fill-opacity:0; stroke-width: 2; stroke: #000000" points="308.284,204.307 317.188,197.547 306.437,194.479 "/>
  </g>
  <g>
    <path style="fill: #ffffff" d="M 626.101 200 L 716.351,200 C 728.811,200 738.913,206.492 738.913,214.5 C 738.913,222.508 728.811,229 716.351,229 L 626.101,229 C 613.64,229 603.538,222.508 603.538,214.5 C 603.538,206.492 613.64,200 626.101,200z"/>
    <path style="fill: none; fill-opacity:0; stroke-width: 2; stroke: #000000" d="M 626.101 200 L 716.351,200 C 728.811,200 738.913,206.492 738.913,214.5 C 738.913,222.508 728.811,229 716.351,229 L 626.101,229 C 613.64,229 603.538,222.508 603.538,214.5 C 603.538,206.492 613.64,200 626.101,200"/>
    <text font-size="12.8" style="fill: #000000;text-anchor:middle;font-family:sans-serif;font-style:normal;font-weight:normal" x="671.226" y="218.5">
      <tspan x="671.226" y="218.5">Workshop B</tspan>
    </text>
  </g>
  <g>
    <line style="fill: none; fill-opacity:0; stroke-width: 2; stroke: #000000" x1="614.146" y1="203.248" x2="572.895" y2="197.727"/>
    <polyline style="fill: none; fill-opacity:0; stroke-width: 2; stroke: #000000" points="581.253,193.801 570.678,197.431 579.927,203.713 "/>
  </g>
  <g>
    <line style="fill: none; fill-opacity:0; stroke-width: 2; stroke: #000000" x1="326.026" y1="236.5" x2="299.318" y2="225.956"/>
    <polyline style="fill: none; fill-opacity:0; stroke-width: 2; stroke: #000000" points="308.375,224.156 297.238,225.135 304.703,233.458 "/>
  </g>
  <g>
    <line style="fill: none; fill-opacity:0; stroke-width: 2; stroke: #000000" x1="572.026" y1="236.5" x2="605.872" y2="226.069"/>
    <polyline style="fill: none; fill-opacity:0; stroke-width: 2; stroke: #000000" points="599.925,233.134 608.009,225.411 596.98,223.577 "/>
  </g>
  <text font-size="10.16" style="fill: #000000;text-anchor:start;font-family:sans-serif;font-style:normal;font-weight:normal" x="179.026" y="274.5">
    <tspan x="179.026" y="274.5">The Grand Unified Programming Theory: The Pure Function Pipeline Data Flow with Warehouse/Workshop Model </tspan>
    <tspan x="179.026" y="287.2">https://github.com/linpengcheng/PurefunctionPipelineDataflow</tspan>
    <tspan x="179.026" y="299.9">Copyright © 2018 Lin Pengcheng. All rights reserved.</tspan>
  </text>
  <text font-size="20.32" style="fill: #000000;text-anchor:start;font-family:sans-serif;font-style:normal;font-weight:700" x="119.026" y="20.0722">
    <tspan x="119.026" y="20.0722">Warehouse/Workshop Model</tspan>
  </text>
  <text font-size="12.8" style="fill: #000000;text-anchor:start;font-family:sans-serif;font-style:normal;font-weight:normal" x="351.026" y="242.072">
    <tspan x="351.026" y="242.072">  </tspan>
  </text>
  <text font-size="15.8044" style="fill: #000000;text-anchor:start;font-family:sans-serif;font-style:normal;font-weight:700" x="61" y="51">
    <tspan x="61" y="51">Workshop</tspan>
  </text>
  <text font-size="10.16" style="fill: #000000;text-anchor:start;font-family:sans-serif;font-style:normal;font-weight:normal" x="179" y="315.5">
    <tspan x="179" y="315.5">My programming aesthetic standards: Simplicity, unity, order, symmetry and definiteness.</tspan>
  </text>
  <text font-size="11.2889" style="fill: #000000;text-anchor:start;font-family:sans-serif;font-style:normal;font-weight:normal" x="456.916" y="20.2222">
    <tspan x="456.916" y="20.2222">Software is a factory that produces data.</tspan>
  </text>
  <g>
    <line style="fill: none; fill-opacity:0; stroke-width: 2; stroke: #000000" x1="570.846" y1="29.4426" x2="570.846" y2="52.6005"/>
    <line style="fill: none; fill-opacity:0; stroke-width: 2; stroke: #000000" x1="570.846" y1="29.4426" x2="713.635" y2="29.4426"/>
    <line style="fill: none; fill-opacity:0; stroke-width: 2; stroke: #000000" x1="570.846" y1="52.6005" x2="713.635" y2="52.6005"/>
    <text font-size="12.8" style="fill: #000000;text-anchor:middle;font-family:sans-serif;font-style:normal;font-weight:normal" x="645.81" y="45.6005">
      <tspan x="645.81" y="45.6005">External Warehouse</tspan>
    </text>
  </g>
  <g>
    <path style="fill: #ffffff" d="M 593.313 53.3 L 686.663,53.3 C 699.552,53.3 710.001,58.2249 710.001,64.3 C 710.001,70.3751 699.552,75.3 686.663,75.3 L 593.313,75.3 C 580.425,75.3 569.976,70.3751 569.976,64.3 C 569.976,58.2249 580.425,53.3 593.313,53.3z"/>
    <path style="fill: none; fill-opacity:0; stroke-width: 2; stroke: #000000" d="M 593.313 53.3 L 686.663,53.3 C 699.552,53.3 710.001,58.2249 710.001,64.3 C 710.001,70.3751 699.552,75.3 686.663,75.3 L 593.313,75.3 C 580.425,75.3 569.976,70.3751 569.976,64.3 C 569.976,58.2249 580.425,53.3 593.313,53.3"/>
    <text font-size="12.8" style="fill: #000000;text-anchor:middle;font-family:sans-serif;font-style:normal;font-weight:normal" x="639.988" y="68.3">
      <tspan x="639.988" y="68.3">Accept.Check</tspan>
    </text>
  </g>
  <g>
    <line style="fill: none; fill-opacity:0; stroke-width: 2; stroke: #000000" x1="457.761" y1="79.4623" x2="457.006" y2="108.529"/>
    <polyline style="fill: none; fill-opacity:0; stroke-width: 2; stroke: #000000" points="462.558,87.3534 457.819,77.227 452.561,87.0938 "/>
    <polyline style="fill: none; fill-opacity:0; stroke-width: 2; stroke: #000000" points="452.209,100.638 456.948,110.765 462.206,100.898 "/>
  </g>
  <g>
    <line style="fill: none; fill-opacity:0; stroke-width: 2; stroke: #000000" x1="640.115" y1="79.7703" x2="640.873" y2="106.53"/>
    <polyline style="fill: none; fill-opacity:0; stroke-width: 2; stroke: #000000" points="645.333,87.3895 640.052,77.5352 635.337,87.6728 "/>
    <polyline style="fill: none; fill-opacity:0; stroke-width: 2; stroke: #000000" points="635.655,98.9105 640.937,108.765 645.651,98.6272 "/>
  </g>
  <g>
    <line style="fill: none; fill-opacity:0; stroke-width: 2; stroke: #000000" x1="456.753" y1="155.47" x2="456.137" y2="175.53"/>
    <polyline style="fill: none; fill-opacity:0; stroke-width: 2; stroke: #000000" points="461.512,163.384 456.821,153.235 451.517,163.077 "/>
    <polyline style="fill: none; fill-opacity:0; stroke-width: 2; stroke: #000000" points="451.378,167.616 456.069,177.765 461.373,167.923 "/>
  </g>
  <g>
    <rect style="fill: #ffffff" x="360" y="28" width="197" height="46"/>
    <rect style="fill: none; fill-opacity:0; stroke-width: 2; stroke: #000000" x="360" y="28" width="197" height="46"/>
    <text font-size="12.8" style="fill: #000000;text-anchor:middle;font-family:sans-serif;font-style:normal;font-weight:normal" x="458.5" y="54.9">
      <tspan x="458.5" y="54.9"></tspan>
    </text>
  </g>
  <text font-size="12.8" style="fill: #000000;text-anchor:middle;font-family:sans-serif;font-style:normal;font-weight:normal" x="467.5" y="45">
    <tspan x="467.5" y="45">External </tspan>
    <tspan x="467.5" y="61">Warehouse/Workshop Model</tspan>
  </text>
  <g>
    <path style="fill: #ffffff" d="M 247.806 30 L 331.031,30 C 342.522,30 351.838,40.1407 351.838,52.65 C 351.838,65.1593 342.522,75.3 331.031,75.3 L 247.806,75.3 C 236.315,75.3 227,65.1593 227,52.65 C 227,40.1407 236.315,30 247.806,30z"/>
    <path style="fill: none; fill-opacity:0; stroke-width: 2; stroke: #000000" d="M 247.806 30 L 331.031,30 C 342.522,30 351.838,40.1407 351.838,52.65 C 351.838,65.1593 342.522,75.3 331.031,75.3 L 247.806,75.3 C 236.315,75.3 227,65.1593 227,52.65 C 227,40.1407 236.315,30 247.806,30"/>
    <text font-size="12.8" style="fill: #000000;text-anchor:middle;font-family:sans-serif;font-style:normal;font-weight:normal" x="289.419" y="48.65">
      <tspan x="289.419" y="48.65">External</tspan>
      <tspan x="289.419" y="64.65">Workshop</tspan>
    </text>
  </g>
  <g>
    <line style="fill: none; fill-opacity:0; stroke-width: 2; stroke: #000000" x1="289.372" y1="79.7719" x2="289.098" y2="106.752"/>
    <polyline style="fill: none; fill-opacity:0; stroke-width: 2; stroke: #000000" points="294.293,87.5864 289.395,77.536 284.294,87.4845 "/>
    <polyline style="fill: none; fill-opacity:0; stroke-width: 2; stroke: #000000" points="284.177,98.9374 289.075,108.988 294.176,99.0393 "/>
  </g>
</svg>
