<?xml version="1.0" encoding="UTF-8" standalone="no"?>
<!DOCTYPE svg PUBLIC "-//W3C//DTD SVG 1.0//EN" "http://www.w3.org/TR/2001/PR-SVG-20010719/DTD/svg10.dtd">
<svg width="29cm" height="28cm" viewBox="7 18 567 542" xmlns="http://www.w3.org/2000/svg" xmlns:xlink="http://www.w3.org/1999/xlink">
  <g>
    <rect style="fill: #ffffff" x="8.55" y="395" width="285.9" height="54"/>
    <rect style="fill: none; fill-opacity:0; stroke-width: 2; stroke: #000000" x="8.55" y="395" width="285.9" height="54"/>
    <text font-size="12.8" style="fill: #000000;text-anchor:middle;font-family:sans-serif;font-style:normal;font-weight:normal" x="151.5" y="417.9">
      <tspan x="151.5" y="417.9">Highest priority: instinctual subconscious</tspan>
      <tspan x="151.5" y="433.9">physiological needs</tspan>
    </text>
  </g>
  <g>
    <rect style="fill: #ffffff" x="35" y="335.75" width="231" height="38"/>
    <rect style="fill: none; fill-opacity:0; stroke-width: 2; stroke: #000000" x="35" y="335.75" width="231" height="38"/>
    <text font-size="12.8" style="fill: #000000;text-anchor:middle;font-family:sans-serif;font-style:normal;font-weight:normal" x="150.5" y="358.65">
      <tspan x="150.5" y="358.65">safety needs</tspan>
    </text>
  </g>
  <g>
    <rect style="fill: #ffffff" x="49.225" y="272.75" width="202.55" height="44"/>
    <rect style="fill: none; fill-opacity:0; stroke-width: 2; stroke: #000000" x="49.225" y="272.75" width="202.55" height="44"/>
    <text font-size="12.8" style="fill: #000000;text-anchor:middle;font-family:sans-serif;font-style:normal;font-weight:normal" x="150.5" y="298.65">
      <tspan x="150.5" y="298.65">belongingness &amp; love needs</tspan>
    </text>
  </g>
  <g>
    <rect style="fill: #ffffff" x="72" y="215.75" width="157" height="38"/>
    <rect style="fill: none; fill-opacity:0; stroke-width: 2; stroke: #000000" x="72" y="215.75" width="157" height="38"/>
    <text font-size="12.8" style="fill: #000000;text-anchor:middle;font-family:sans-serif;font-style:normal;font-weight:normal" x="150.5" y="238.65">
      <tspan x="150.5" y="238.65">esteem needs</tspan>
    </text>
  </g>
  <g>
    <rect style="fill: #ffffff" x="85.4" y="156.75" width="131.2" height="38"/>
    <rect style="fill: none; fill-opacity:0; stroke-width: 2; stroke: #000000" x="85.4" y="156.75" width="131.2" height="38"/>
    <text font-size="12.8" style="fill: #000000;text-anchor:middle;font-family:sans-serif;font-style:normal;font-weight:normal" x="151" y="179.65">
      <tspan x="151" y="179.65">self-actualization</tspan>
    </text>
  </g>
  <g>
    <line style="fill: none; fill-opacity:0; stroke-width: 2; stroke: #000000" x1="151.5" y1="395" x2="150.71" y2="378.217"/>
    <polyline style="fill: none; fill-opacity:0; stroke-width: 2; stroke: #000000" points="156.07,385.738 150.605,375.984 146.081,386.208 "/>
  </g>
  <g>
    <line style="fill: none; fill-opacity:0; stroke-width: 2; stroke: #000000" x1="150.5" y1="335.75" x2="150.5" y2="321.222"/>
    <polyline style="fill: none; fill-opacity:0; stroke-width: 2; stroke: #000000" points="155.5,328.986 150.5,318.986 145.5,328.986 "/>
  </g>
  <g>
    <line style="fill: none; fill-opacity:0; stroke-width: 2; stroke: #000000" x1="150.5" y1="272.75" x2="150.5" y2="258.222"/>
    <polyline style="fill: none; fill-opacity:0; stroke-width: 2; stroke: #000000" points="155.5,265.986 150.5,255.986 145.5,265.986 "/>
  </g>
  <g>
    <line style="fill: none; fill-opacity:0; stroke-width: 2; stroke: #000000" x1="150.5" y1="215.75" x2="150.894" y2="199.221"/>
    <polyline style="fill: none; fill-opacity:0; stroke-width: 2; stroke: #000000" points="155.707,207.102 150.947,196.986 145.71,206.864 "/>
  </g>
  <g>
    <rect style="fill: #ffffff" x="308" y="206" width="216" height="65"/>
    <rect style="fill: none; fill-opacity:0; stroke-width: 2; stroke: #000000" x="308" y="206" width="216" height="65"/>
    <text font-size="12.8" style="fill: #000000;text-anchor:middle;font-family:sans-serif;font-style:normal;font-weight:normal" x="416" y="242.4">
      <tspan x="416" y="242.4"></tspan>
    </text>
  </g>
  <text font-size="12.8" style="fill: #000000;text-anchor:start;font-family:sans-serif;font-style:normal;font-weight:normal" x="416" y="271">
    <tspan x="416" y="271"></tspan>
  </text>
  <text font-size="12.8" style="fill: #000000;text-anchor:start;font-family:sans-serif;font-style:normal;font-weight:normal" x="416" y="271">
    <tspan x="416" y="271"></tspan>
  </text>
  <text font-size="12.8" style="fill: #000000;text-anchor:start;font-family:sans-serif;font-style:normal;font-weight:normal" x="316" y="236">
    <tspan x="316" y="236">             Brain's loophole</tspan>
    <tspan x="316" y="252">Immortality of the body or mind</tspan>
  </text>
  <g>
    <polyline style="fill: none; fill-opacity:0; stroke-width: 2; stroke: #000000" points="416,271 416,473.13 151.5,473.13 151.5,453.472 "/>
    <polyline style="fill: none; fill-opacity:0; stroke-width: 2; stroke: #000000" points="156.5,461.236 151.5,451.236 146.5,461.236 "/>
  </g>
  <text font-size="20.32" style="fill: #000000;text-anchor:start;font-family:sans-serif;font-style:normal;font-weight:normal" x="70" y="37.0002">
    <tspan x="70" y="37.0002">Lin Pengcheng's Closed-loop of Needs</tspan>
  </text>
  <text font-size="12.8" style="fill: #000000;text-anchor:start;font-family:sans-serif;font-style:normal;font-weight:normal" x="91" y="57.0002">
    <tspan x="91" y="57.0002">（Update edition of Maslow's Hierarchy of Needs）</tspan>
  </text>
  <text font-size="16.9333" style="fill: #000000;text-anchor:start;font-family:sans-serif;font-style:normal;font-weight:normal" x="60" y="118">
    <tspan x="60" y="118">Use brain's loophole to unlock brain's potential!</tspan>
  </text>
  <text font-size="12.8" style="fill: #000000;text-anchor:start;font-family:sans-serif;font-style:normal;font-weight:normal" x="70" y="74.5502">
    <tspan x="70" y="74.5502">Copyright © 2023.07.14 Lin Pengcheng. All rights reserved.</tspan>
  </text>
  <text font-size="12.8" style="fill: #000000;text-anchor:start;font-family:sans-serif;font-style:normal;font-weight:normal" x="64" y="96.0002">
    <tspan x="64" y="96.0002">https://github.com/linpengcheng/PurefunctionPipelineDataflow</tspan>
  </text>
  <line style="fill: none; fill-opacity:0; stroke-width: 2; stroke-dasharray: 4; stroke: #000000" x1="300" y1="130.55" x2="300" y2="503.38"/>
  <text font-size="12.8" style="fill: #000000;text-anchor:start;font-family:sans-serif;font-style:normal;font-weight:normal" x="74" y="500.008">
    <tspan x="74" y="500.008">Maslow's Hierarchy of Needs</tspan>
  </text>
  <text font-size="12.8" style="fill: #000000;text-anchor:start;font-family:sans-serif;font-style:normal;font-weight:normal" x="307" y="500.38">
    <tspan x="307" y="500.38">Chinese mythology &amp; traditional values</tspan>
  </text>
  <g>
    <polyline style="fill: none; fill-opacity:0; stroke-width: 2; stroke: #000000" points="151,156.75 151,135.75 416,135.75 416,201.528 "/>
    <polyline style="fill: none; fill-opacity:0; stroke-width: 2; stroke: #000000" points="411,193.764 416,203.764 421,193.764 "/>
  </g>
  <text font-size="12.8" style="fill: #000000;text-anchor:start;font-family:sans-serif;font-style:normal;font-weight:normal" x="17" y="523.5">
    <tspan x="17" y="523.5">Disguise the highest level needs (self-actualization needs: immortality of the mind) as </tspan>
    <tspan x="17" y="539.5">the lowest level needs (physiological needs: immortality of the body) and become the </tspan>
    <tspan x="17" y="555.5">highest priority task of the brain to maximise the potential of the brain to execute it.</tspan>
  </text>
</svg>
